HIERARCHY
ROOT Hips
{
	OFFSET 48.609600 -41.751415 101.031990
	CHANNELS 6 Xposition Yposition Zposition Xrotation Yrotation Zrotation
	JOINT spine
	{
		OFFSET 0.000000 -0.507027 8.817039
		CHANNELS 3 Xrotation Yrotation Zrotation
		JOINT spine1
		{
			OFFSET 0.000000 0.000000 10.776604
			CHANNELS 3 Xrotation Yrotation Zrotation
			JOINT spine2
			{
				OFFSET 0.000000 -0.000004 10.325905
				CHANNELS 3 Xrotation Yrotation Zrotation
				JOINT Neck
				{
					OFFSET 0.000000 -1.263954 26.511002
					CHANNELS 3 Xrotation Yrotation Zrotation
					JOINT Head
					{
						OFFSET 0.000000 0.000000 8.009659
						CHANNELS 3 Xrotation Yrotation Zrotation
						End Site
						{
							OFFSET 0.000000 6.393856 19.387894
						}
					}
				}
				JOINT RightShoulder
				{
					OFFSET -4.347950 0.605423 11.151199
					CHANNELS 3 Xrotation Yrotation Zrotation
					JOINT RightArm
					{
						OFFSET 0.000000 -0.000004 14.625793
						CHANNELS 3 Xrotation Yrotation Zrotation
						JOINT RightArmRoll
						{
							OFFSET 0.000000 0.000000 7.383408
							CHANNELS 3 Xrotation Yrotation Zrotation
							JOINT RightForeArm
							{
								OFFSET 0.000000 -0.000004 21.505203
								CHANNELS 3 Xrotation Yrotation Zrotation
								JOINT RightForeArmRoll
								{
									OFFSET 0.000000 0.000000 8.285324
									CHANNELS 3 Xrotation Yrotation Zrotation
									JOINT RightHand
									{
										OFFSET 0.000000 -0.000004 16.626801
										CHANNELS 3 Xrotation Yrotation Zrotation
										End Site
										{
											OFFSET 0.000000 0.000000 0.100006
										}
									}
								}
							}
						}
					}
				}
				JOINT LeftShoulder
				{
					OFFSET 4.347950 0.605423 11.151199
					CHANNELS 3 Xrotation Yrotation Zrotation
					JOINT LeftArm
					{
						OFFSET 0.000000 -0.000004 14.625793
						CHANNELS 3 Xrotation Yrotation Zrotation
						JOINT LeftArmRoll
						{
							OFFSET 0.000000 0.000000 7.383408
							CHANNELS 3 Xrotation Yrotation Zrotation
							JOINT LeftForeArm
							{
								OFFSET 0.000000 -0.000004 21.505203
								CHANNELS 3 Xrotation Yrotation Zrotation
								JOINT LeftForeArmRoll
								{
									OFFSET 0.000000 0.000000 8.285324
									CHANNELS 3 Xrotation Yrotation Zrotation
									JOINT LeftHand
									{
										OFFSET 0.000000 -0.000004 16.626801
										CHANNELS 3 Xrotation Yrotation Zrotation
										End Site
										{
											OFFSET 0.000000 0.000000 0.100006
										}
									}
								}
							}
						}
					}
				}
			}
		}
	}
	JOINT RightUpLeg
	{
		OFFSET -7.815102 1.202171 -1.433090
		CHANNELS 3 Xrotation Yrotation Zrotation
		JOINT RightUpLegRoll
		{
			OFFSET 0.000000 -0.000004 19.495895
			CHANNELS 3 Xrotation Yrotation Zrotation
			JOINT RightLeg
			{
				OFFSET 0.000000 0.000004 -24.142700
				CHANNELS 3 Xrotation Yrotation Zrotation
				JOINT RightLegRoll
				{
					OFFSET 0.000000 -0.000004 24.221703
					CHANNELS 3 Xrotation Yrotation Zrotation
					JOINT RightFoot
					{
						OFFSET 0.000000 -0.000004 20.160507
						CHANNELS 3 Xrotation Yrotation Zrotation
						JOINT RightToeBase
						{
							OFFSET 0.000000 -0.000004 16.853195
							CHANNELS 3 Xrotation Yrotation Zrotation
							End Site
							{
								OFFSET 0.007145 0.940781 8.161865
							}
						}
					}
				}
			}
		}
	}
	JOINT LeftUpLeg
	{
		OFFSET 7.815102 1.202171 -1.433090
		CHANNELS 3 Xrotation Yrotation Zrotation
		JOINT LeftUpLegRoll
		{
			OFFSET 0.000000 -0.000004 19.496002
			CHANNELS 3 Xrotation Yrotation Zrotation
			JOINT LeftLeg
			{
				OFFSET 0.000000 -0.000004 24.142601
				CHANNELS 3 Xrotation Yrotation Zrotation
				JOINT LeftLegRoll
				{
					OFFSET 0.000000 -0.000004 24.445602
					CHANNELS 3 Xrotation Yrotation Zrotation
					JOINT LeftFoot
					{
						OFFSET 0.000000 -0.000004 19.936600
						CHANNELS 3 Xrotation Yrotation Zrotation
						JOINT LeftToeBase
						{
							OFFSET 0.000000 -0.000004 16.853195
							CHANNELS 3 Xrotation Yrotation Zrotation
							End Site
							{
								OFFSET -0.032013 0.940781 8.161865
							}
						}
					}
				}
			}
		}
	}
}
MOTION
Frames: 9
Frame Time: 0.041667
50.211498 -17.134415 65.122581 33.578033 0.330891 6.076854 1.818269 -0.626104 0.095711 7.641006 -1.247794 0.230768 9.286239 -1.244913 0.245710 6.545377 4.997312 -3.016085 -3.782166 4.118413 -3.698188 -12.086520 -47.555342 -13.728767 -29.021310 -118.906094 -64.789692 0.000000 0.000003 0.000001 74.654883 1.259793 -0.740556 0.000001 0.000008 -2.999989 -4.999752 -7.998698 0.000039 170.696044 125.912693 -169.315472 119.067956 56.472352 -78.405108 0.000003 0.000029 -0.000004 74.206242 5.591662 -1.671301 -0.000005 -0.000001 3.007559 -4.999995 7.998685 -0.000096 -109.235250 -168.863641 -2.109795 -179.999991 0.000005 -0.751999 86.612748 -1.676917 -2.954991 -0.000003 -0.000000 1.578620 82.396055 6.579407 2.016109 25.458419 -7.354654 0.011178 -108.366668 180.681808 -3.265379 -0.000005 -0.000005 -0.843922 -91.465085 -0.018623 1.164765 -0.000004 -0.000005 -1.822530 80.787621 -6.575253 -2.183329 25.720906 7.360287 -0.030574 
50.217400 -17.173618 65.276993 33.594132 0.329491 6.068718 1.810703 -0.624996 0.095876 7.625886 -1.245797 0.228977 9.271117 -1.242933 0.243897 6.510950 4.999780 -3.006978 -3.774999 4.133265 -3.692158 -12.079641 -47.588756 -13.721852 -29.443518 -119.037602 -64.932300 0.000003 -0.000001 0.000002 74.578754 1.146800 -0.676607 0.000002 0.000011 -2.999985 -4.999753 -7.998695 0.000040 170.695812 125.862000 -169.311743 119.042274 56.387942 -78.539355 0.000002 0.000029 -0.000006 73.951681 5.734484 -1.789142 -0.000002 -0.000005 3.007559 -5.000000 7.998685 -0.000098 -109.039046 -168.872438 -2.105634 -179.999991 0.000005 -0.751002 86.795571 -1.703522 -2.979162 -0.000003 -0.000000 1.574050 82.420897 6.578660 2.016526 25.458422 -7.354656 0.011177 -108.173838 180.675852 -3.243177 -0.000005 -0.000004 -0.842107 -91.270438 0.012473 1.197142 -0.000004 -0.000005 -1.817860 80.803733 -6.579194 -2.167614 25.719996 7.360290 -0.030892 
50.215801 -17.196810 65.435387 33.609230 0.328258 6.060192 1.803088 -0.623918 0.096054 7.610659 -1.243839 0.227221 9.255878 -1.240984 0.242119 6.476273 5.001870 -2.997754 -3.766818 4.147852 -3.686002 -12.072795 -47.622456 -13.714995 -29.864155 -119.170805 -65.070939 0.000003 0.000001 -0.000001 74.505500 1.035187 -0.614041 -0.000000 0.000008 -2.999989 -4.999754 -7.998696 0.000038 170.695757 125.812494 -169.308314 119.018669 56.302083 -78.676553 -0.000001 0.000029 -0.000006 73.693083 5.878385 -1.906860 -0.000008 -0.000004 3.007559 -5.000000 7.998685 -0.000098 -108.841086 -168.881372 -2.101630 -179.999991 0.000005 -0.750004 86.980171 -1.730418 -3.003225 -0.000004 -0.000000 1.569420 82.444864 6.577931 2.016894 25.458422 -7.354655 0.011177 -107.979232 180.669541 -3.221794 -0.000004 -0.000004 -0.840288 -91.074002 0.043850 1.227417 -0.000004 -0.000005 -1.813140 80.818965 -6.583252 -2.151360 25.719088 7.360292 -0.031231 
50.221199 -17.250608 65.579292 33.623225 0.327070 6.051278 1.795495 -0.622862 0.096242 7.595456 -1.241891 0.225559 9.240682 -1.239054 0.240436 6.440932 5.003917 -2.988433 -3.757328 4.161608 -3.679771 -12.066131 -47.656047 -13.708341 -30.280800 -119.306206 -65.205671 0.000000 0.000001 0.000003 74.430839 0.922653 -0.550681 0.000001 0.000008 -2.999991 -4.999757 -7.998694 0.000038 170.695744 125.764191 -169.305022 118.996976 56.214697 -78.816278 0.000002 0.000029 -0.000006 73.430093 6.023227 -2.024330 -0.000008 -0.000004 3.007559 -4.999993 7.998684 -0.000096 -108.641173 -168.890566 -2.096517 -179.999991 0.000005 -0.748994 87.166546 -1.757491 -3.027376 -0.000003 -0.000000 1.564740 82.467711 6.577272 2.017232 25.458422 -7.354655 0.011177 -107.782926 180.662848 -3.200360 -0.000005 -0.000004 -0.838465 -90.876145 0.075463 1.259575 -0.000003 -0.000005 -1.808370 80.833274 -6.587377 -2.134864 25.718276 7.360287 -0.031570 
50.231800 -17.305622 65.716591 33.635823 0.325806 6.041953 1.787989 -0.621817 0.096431 7.580451 -1.239922 0.224045 9.225679 -1.237093 0.238900 6.404483 5.006251 -2.979005 -3.746193 4.173974 -3.673464 -12.059673 -47.688910 -13.701928 -30.693589 -119.441676 -65.339372 0.000003 -0.000002 0.000003 74.350864 0.806856 -0.484362 0.000003 0.000011 -2.999989 -4.999757 -7.998693 0.000040 170.695648 125.717090 -169.301702 118.976786 56.125427 -78.957902 0.000003 0.000030 -0.000009 73.162405 6.168845 -2.141731 -0.000008 -0.000002 3.007559 -4.999996 7.998687 -0.000100 -108.439164 -168.900019 -2.090907 -179.999991 0.000005 -0.747997 87.354711 -1.784682 -3.051214 -0.000005 -0.000000 1.560010 82.489540 6.576633 2.017528 25.458420 -7.354654 0.011178 -107.584639 180.655703 -3.178002 -0.000005 -0.000004 -0.836644 -90.676826 0.107336 1.291638 -0.000005 -0.000005 -1.803570 80.846477 -6.591664 -2.117844 25.717771 7.360290 -0.031953 
50.234600 -17.347221 65.868195 33.646711 0.324348 6.032237 1.780664 -0.620776 0.096618 7.565797 -1.237892 0.222736 9.211030 -1.235082 0.237568 6.366515 5.009215 -2.969480 -3.733112 4.184405 -3.667122 -12.053568 -47.720626 -13.695888 -31.099788 -119.578594 -65.471687 0.000002 0.000000 -0.000000 74.261546 0.685444 -0.412999 0.000001 0.000008 -2.999988 -4.999756 -7.998696 0.000040 170.695238 125.671027 -169.298096 118.960285 56.032990 -79.104136 0.000000 0.000029 -0.000006 72.889525 6.315075 -2.258644 -0.000005 -0.000002 3.007559 -4.999995 7.998685 -0.000095 -108.234668 -168.909895 -2.086419 -179.999991 0.000005 -0.746002 87.544741 -1.811837 -3.074935 -0.000003 -0.000000 1.555230 82.510229 6.576024 2.017694 25.458419 -7.354656 0.011177 -107.384268 180.648081 -3.155972 -0.000007 -0.000005 -0.834823 -90.476367 0.139479 1.322591 -0.000006 -0.000005 -1.798740 80.858546 -6.596068 -2.100497 25.717566 7.360285 -0.032339 
50.226002 -17.378410 66.024078 33.655706 0.322574 6.022104 1.773593 -0.619730 0.096800 7.551654 -1.235791 0.221687 9.196890 -1.232989 0.236496 6.326591 5.013140 -2.959865 -3.717773 4.192342 -3.660762 -12.047914 -47.750795 -13.690328 -31.496707 -119.717315 -65.602116 -0.000001 0.000002 -0.000001 74.158806 0.556004 -0.334561 0.000003 0.000008 -2.999991 -4.999753 -7.998696 0.000040 170.694460 125.626208 -169.294107 118.944643 55.938197 -79.251122 0.000000 0.000027 -0.000005 72.611079 6.461816 -2.375121 -0.000007 -0.000006 3.007561 -4.999997 7.998685 -0.000094 -108.027529 -168.920195 -2.080560 -179.999991 0.000005 -0.745005 87.736676 -1.838869 -3.098439 -0.000005 -0.000000 1.550390 82.529715 6.575409 2.018029 25.458424 -7.354655 0.011177 -107.181821 180.639953 -3.134310 -0.000006 -0.000004 -0.833007 -90.274822 0.171850 1.354402 -0.000005 -0.000005 -1.793900 80.869358 -6.600620 -2.082834 25.717771 7.360290 -0.032763 
50.235001 -17.434414 66.160690 33.662499 0.320367 6.011558 1.766869 -0.618670 0.096966 7.538190 -1.233580 0.220955 9.183416 -1.230785 0.235739 6.284272 5.018359 -2.950164 -3.699845 4.197226 -3.654402 -12.042817 -47.779007 -13.685372 -31.883005 -119.857375 -65.732204 0.000000 0.000000 -0.000000 74.038786 0.416089 -0.247075 0.000001 0.000009 -2.999990 -4.999755 -7.998700 0.000035 170.693039 125.582317 -169.289449 118.930628 55.840154 -79.399911 -0.000001 0.000029 -0.000005 72.326868 6.608877 -2.491361 -0.000010 -0.000004 3.007557 -4.999999 7.998684 -0.000096 -107.817610 -168.930905 -2.074800 -179.999991 0.000005 -0.743994 87.930578 -1.865635 -3.121705 -0.000002 -0.000000 1.545490 82.547918 6.574816 2.018440 25.458422 -7.354656 0.011178 -106.976984 180.631251 -3.112262 -0.000003 -0.000005 -0.831196 -90.072553 0.204580 1.387135 -0.000004 -0.000005 -1.789050 80.878920 -6.605291 -2.064653 25.718685 7.360290 -0.033245 
50.248699 -17.476116 66.305191 33.666986 0.317606 6.000600 1.760543 -0.617586 0.097115 7.525537 -1.231236 0.220596 9.170769 -1.228439 0.235351 6.239169 5.025212 -2.940367 -3.679012 4.198523 -3.648071 -12.038377 -47.804740 -13.681117 -32.257389 -119.998309 -65.862927 0.000003 -0.000000 0.000000 73.897497 0.263194 -0.148613 0.000001 0.000010 -2.999987 -4.999754 -7.998695 0.000042 170.690908 125.539587 -169.283985 118.916763 55.739166 -79.548406 -0.000001 0.000028 -0.000004 72.036304 6.756172 -2.607009 -0.000007 -0.000002 3.007564 -4.999997 7.998686 -0.000094 -107.604542 -168.942270 -2.068887 -179.999991 0.000005 -0.742997 88.126482 -1.892065 -3.144445 -0.000004 -0.000000 1.540539 82.564706 6.574281 2.019038 25.458420 -7.354656 0.011178 -106.769777 180.621962 -3.091993 -0.000005 -0.000004 -0.829394 -89.869553 0.237522 1.418332 -0.000005 -0.000005 -1.784219 80.887021 -6.610170 -2.045973 25.720303 7.360291 -0.033761 
